<svg xmlns="http://www.w3.org/2000/svg" viewBox="0 0 180 180">
  <defs>
    <linearGradient id="appleGrad" x1="0%" y1="0%" x2="100%" y2="100%">
      <stop offset="0%" style="stop-color:#3B82F6"/>
      <stop offset="50%" style="stop-color:#6366F1"/>
      <stop offset="100%" style="stop-color:#8B5CF6"/>
    </linearGradient>
    <linearGradient id="glowApple" x1="0%" y1="0%" x2="100%" y2="100%">
      <stop offset="0%" style="stop-color:#FCD34D;stop-opacity:0.8"/>
      <stop offset="100%" style="stop-color:#F59E0B;stop-opacity:0.6"/>
    </linearGradient>
  </defs>
  
  <rect width="180" height="180" rx="40" fill="url(#appleGrad)"/>
  
  <g transform="translate(90, 90)">
    <ellipse cx="0" cy="-15" rx="30" ry="38" fill="#FFFFFF" opacity="0.95"/>
    <ellipse cx="0" cy="-15" rx="22" ry="30" fill="url(#glowApple)" opacity="0.5"/>
    <path d="M -8,-15 L -4,5 L 4,5 L 8,-15" fill="none" stroke="#FCD34D" stroke-width="3" opacity="0.8"/>
    <path d="M -12,-5 Q 0,-12 12,-5" fill="none" stroke="#FCD34D" stroke-width="3" opacity="0.6"/>
    <rect x="-12" y="20" width="24" height="6" rx="2" fill="#E5E7EB"/>
    <rect x="-10" y="26" width="20" height="4" rx="1.5" fill="#D1D5DB"/>
    <rect x="-10" y="30" width="20" height="4" rx="1.5" fill="#E5E7EB"/>
    
    <path d="M -15,-18 Q -18,-26 -12,-30 Q -4,-34 0,-28 Q 4,-34 12,-30 Q 18,-26 15,-18" 
          fill="none" stroke="#60A5FA" stroke-width="3" opacity="0.6" stroke-linecap="round"/>
    <circle cx="-8" cy="-22" r="3" fill="#60A5FA" opacity="0.7"/>
    <circle cx="8" cy="-22" r="3" fill="#60A5FA" opacity="0.7"/>
    <circle cx="0" cy="-26" r="3" fill="#93C5FD" opacity="0.7"/>
  </g>
  
  <circle cx="40" cy="45" r="4" fill="#FCD34D" opacity="0.8"/>
  <circle cx="140" cy="55" r="3" fill="#FFFFFF" opacity="0.9"/>
  <circle cx="135" cy="125" r="4" fill="#93C5FD" opacity="0.7"/>
  <circle cx="50" cy="135" r="3" fill="#FCD34D" opacity="0.6"/>
</svg>
